<?xml version="1.0" encoding="UTF-8" standalone="no"?>
<!DOCTYPE svg PUBLIC "-//W3C//DTD SVG 1.1//EN" "http://www.w3.org/Graphics/SVG/1.1/DTD/svg11.dtd">
<svg width="100%" height="100%" viewBox="0 0 720 720" version="1.1" xmlns="http://www.w3.org/2000/svg" xmlns:xlink="http://www.w3.org/1999/xlink" xml:space="preserve" xmlns:serif="http://www.serif.com/" style="fill-rule:evenodd;clip-rule:evenodd;">
    <g transform="matrix(0.35, 0, 0, 0.35, 110, 180)">
        <g fill="#04364a" fill-opacity="1">
            <g transform="translate(29.324755, 505.209664)">
                <g>
                    <path d="M 144.765625 7.953125 C 125.328125 7.953125 107.738281 3.800781 92 -4.5 C 76.269531 -12.8125 62.835938 -24.035156 51.703125 -38.171875 C 40.566406 -52.316406 32.082031 -68.140625 26.25 -85.640625 C 20.414062 -103.140625 17.5 -121.082031 17.5 -139.46875 C 17.5 -158.5625 20.503906 -177.117188 26.515625 -195.140625 C 32.523438 -213.171875 41.273438 -229.34375 52.765625 -243.65625 C 64.253906 -257.976562 78.21875 -269.382812 94.65625 -277.875 C 111.09375 -286.363281 129.742188 -290.609375 150.609375 -290.609375 C 166.160156 -290.609375 180.914062 -287.601562 194.875 -281.59375 C 208.84375 -275.582031 220.425781 -266.210938 229.625 -253.484375 L 229.625 -396.65625 L 316.0625 -396.65625 L 316.0625 0 L 236.515625 0 L 233.859375 -40.296875 C 223.960938 -25.097656 211.144531 -13.253906 195.40625 -4.765625 C 179.675781 3.710938 162.796875 7.953125 144.765625 7.953125 Z M 105.53125 -141.59375 C 105.53125 -127.445312 108.359375 -115.25 114.015625 -105 C 118.960938 -94.394531 126.296875 -85.910156 136.015625 -79.546875 C 145.742188 -73.179688 156.441406 -70 168.109375 -70 C 181.179688 -70 192.398438 -73.359375 201.765625 -80.078125 C 211.140625 -86.796875 218.300781 -95.632812 223.25 -106.59375 C 228.195312 -117.550781 230.671875 -129.21875 230.671875 -141.59375 C 230.671875 -153.96875 228.195312 -165.546875 223.25 -176.328125 C 218.300781 -187.109375 211.226562 -195.859375 202.03125 -202.578125 C 192.84375 -209.296875 181.535156 -212.65625 168.109375 -212.65625 C 155.378906 -212.65625 144.328125 -209.296875 134.953125 -202.578125 C 125.585938 -195.859375 118.34375 -187.109375 113.21875 -176.328125 C 108.09375 -165.546875 105.53125 -153.96875 105.53125 -141.59375 Z M 105.53125 -141.59375 "/>
                </g>
            </g>
        </g>
        <g fill="#04364a" fill-opacity="1">
            <g transform="translate(372.394406, 505.209664)">
                <g>
                    <path d="M 17.5 -140.53125 C 17.5 -169.164062 24.125 -194.796875 37.375 -217.421875 C 50.632812 -240.046875 68.753906 -257.898438 91.734375 -270.984375 C 114.710938 -284.066406 140.523438 -290.609375 169.171875 -290.609375 C 197.453125 -290.609375 222.816406 -284.15625 245.265625 -271.25 C 267.710938 -258.34375 285.5625 -240.753906 298.8125 -218.484375 C 312.070312 -196.210938 318.703125 -170.582031 318.703125 -141.59375 C 318.703125 -113.3125 312.070312 -87.851562 298.8125 -65.21875 C 285.5625 -42.59375 267.535156 -24.738281 244.734375 -11.65625 C 221.929688 1.414062 196.035156 7.953125 167.046875 7.953125 C 139.117188 7.953125 113.835938 1.585938 91.203125 -11.140625 C 68.578125 -23.867188 50.632812 -41.457031 37.375 -63.90625 C 24.125 -86.351562 17.5 -111.894531 17.5 -140.53125 Z M 168.109375 -212.65625 C 155.023438 -212.65625 143.796875 -209.296875 134.421875 -202.578125 C 125.054688 -195.859375 117.898438 -187.019531 112.953125 -176.0625 C 108.003906 -165.101562 105.53125 -153.4375 105.53125 -141.0625 C 105.53125 -127.269531 108.359375 -115.25 114.015625 -105 C 118.960938 -94.394531 126.296875 -85.910156 136.015625 -79.546875 C 145.742188 -73.179688 156.441406 -70 168.109375 -70 C 181.179688 -70 192.3125 -73.359375 201.5 -80.078125 C 210.695312 -86.796875 217.859375 -95.632812 222.984375 -106.59375 C 228.109375 -117.550781 230.671875 -129.039062 230.671875 -141.0625 C 230.671875 -154.84375 228.019531 -167.21875 222.71875 -178.1875 C 217.0625 -188.789062 209.640625 -197.1875 200.453125 -203.375 C 191.265625 -209.5625 180.484375 -212.65625 168.109375 -212.65625 Z M 168.109375 -212.65625 "/>
                </g>
            </g>
        </g>
        <g fill="#04364a" fill-opacity="1">
            <g transform="translate(708.570806, 505.209664)">
                <g>
                    <path d="M 17.5 -140.53125 C 17.5 -169.164062 24.125 -194.796875 37.375 -217.421875 C 50.632812 -240.046875 68.753906 -257.898438 91.734375 -270.984375 C 114.710938 -284.066406 140.523438 -290.609375 169.171875 -290.609375 C 197.453125 -290.609375 222.816406 -284.15625 245.265625 -271.25 C 267.710938 -258.34375 285.5625 -240.753906 298.8125 -218.484375 C 312.070312 -196.210938 318.703125 -170.582031 318.703125 -141.59375 C 318.703125 -113.3125 312.070312 -87.851562 298.8125 -65.21875 C 285.5625 -42.59375 267.535156 -24.738281 244.734375 -11.65625 C 221.929688 1.414062 196.035156 7.953125 167.046875 7.953125 C 139.117188 7.953125 113.835938 1.585938 91.203125 -11.140625 C 68.578125 -23.867188 50.632812 -41.457031 37.375 -63.90625 C 24.125 -86.351562 17.5 -111.894531 17.5 -140.53125 Z M 168.109375 -212.65625 C 155.023438 -212.65625 143.796875 -209.296875 134.421875 -202.578125 C 125.054688 -195.859375 117.898438 -187.019531 112.953125 -176.0625 C 108.003906 -165.101562 105.53125 -153.4375 105.53125 -141.0625 C 105.53125 -127.269531 108.359375 -115.25 114.015625 -105 C 118.960938 -94.394531 126.296875 -85.910156 136.015625 -79.546875 C 145.742188 -73.179688 156.441406 -70 168.109375 -70 C 181.179688 -70 192.3125 -73.359375 201.5 -80.078125 C 210.695312 -86.796875 217.859375 -95.632812 222.984375 -106.59375 C 228.109375 -117.550781 230.671875 -129.039062 230.671875 -141.0625 C 230.671875 -154.84375 228.019531 -167.21875 222.71875 -178.1875 C 217.0625 -188.789062 209.640625 -197.1875 200.453125 -203.375 C 191.265625 -209.5625 180.484375 -212.65625 168.109375 -212.65625 Z M 168.109375 -212.65625 "/>
                </g>
            </g>
        </g>
        <g fill="#04364a" fill-opacity="1">
            <g transform="translate(1044.747157, 505.209664)">
                <g>
                    <path d="M 27.046875 -282.640625 L 106.59375 -282.640625 L 109.765625 -237.578125 C 116.484375 -252.421875 125.675781 -264.257812 137.34375 -273.09375 C 149.007812 -281.9375 163.148438 -286.359375 179.765625 -286.359375 C 184.367188 -286.359375 188.789062 -286.003906 193.03125 -285.296875 C 197.269531 -284.585938 201.507812 -283.351562 205.75 -281.59375 L 197.265625 -195.671875 C 193.378906 -197.441406 189.398438 -198.503906 185.328125 -198.859375 C 181.265625 -199.210938 177.113281 -199.390625 172.875 -199.390625 C 151.664062 -199.390625 136.460938 -193.554688 127.265625 -181.890625 C 118.078125 -170.222656 113.484375 -154.316406 113.484375 -134.171875 L 113.484375 0 L 27.046875 0 Z M 27.046875 -282.640625 "/>
                </g>
            </g>
        </g>
        <g fill="#64ccc5" fill-opacity="1">
            <g transform="translate(1260.059782, 505.209664)">
                <g>
                    <path d="M 22.796875 -50.375 C 22.796875 -64.875 27.832031 -77.25 37.90625 -87.5 C 47.988281 -97.75 60.453125 -102.875 75.296875 -102.875 C 90.148438 -102.875 102.613281 -97.925781 112.6875 -88.03125 C 122.757812 -78.132812 127.796875 -65.582031 127.796875 -50.375 C 127.796875 -36.238281 122.671875 -23.953125 112.421875 -13.515625 C 102.171875 -3.085938 89.796875 2.125 75.296875 2.125 C 61.160156 2.125 48.875 -3.085938 38.4375 -13.515625 C 28.007812 -23.953125 22.796875 -36.238281 22.796875 -50.375 Z M 22.796875 -50.375 "/>
                </g>
            </g>
        </g>
        <g fill="#64ccc5" fill-opacity="1">
            <g transform="translate(1039.628864, 716.520992)">
                <g>
                    <path d="M 11.578125 -121.078125 L 45.65625 -121.078125 L 46.796875 -105.171875 C 50.429688 -111.378906 55.203125 -116.148438 61.109375 -119.484375 C 67.015625 -122.816406 73.523438 -124.484375 80.640625 -124.484375 C 96.992188 -124.484375 108.804688 -117.140625 116.078125 -102.453125 C 120.316406 -109.566406 125.878906 -115.015625 132.765625 -118.796875 C 139.660156 -122.585938 147.195312 -124.484375 155.375 -124.484375 C 165.363281 -124.484375 173.539062 -122.054688 179.90625 -117.203125 C 186.269531 -112.359375 190.960938 -106 193.984375 -98.125 C 197.015625 -90.25 198.53125 -81.617188 198.53125 -72.234375 L 198.53125 0 L 161.515625 0 L 161.515625 -67.6875 C 161.515625 -71.625 160.941406 -75.375 159.796875 -78.9375 C 158.660156 -82.5 156.804688 -85.414062 154.234375 -87.6875 C 151.660156 -89.957031 148.101562 -91.09375 143.5625 -91.09375 C 139.78125 -91.09375 136.375 -90.109375 133.34375 -88.140625 C 130.3125 -86.171875 127.960938 -83.441406 126.296875 -79.953125 C 124.484375 -76.628906 123.578125 -72.691406 123.578125 -68.140625 L 123.578125 0 L 86.546875 0 L 86.546875 -67.6875 C 86.546875 -71.625 85.976562 -75.375 84.84375 -78.9375 C 83.707031 -82.5 81.851562 -85.414062 79.28125 -87.6875 C 76.707031 -89.957031 73.144531 -91.09375 68.59375 -91.09375 C 64.8125 -91.09375 61.40625 -90.109375 58.375 -88.140625 C 55.351562 -86.171875 53.007812 -83.441406 51.34375 -79.953125 C 49.519531 -76.628906 48.609375 -72.691406 48.609375 -68.140625 L 48.609375 0 L 11.578125 0 Z M 11.578125 -121.078125 "/>
                </g>
            </g>
        </g>
        <g fill="#64ccc5" fill-opacity="1">
            <g transform="translate(1249.751508, 716.520992)">
                <g>
                    <path d="M 2.5 0 L 46.796875 -64.0625 L 7.5 -121.078125 L 49.75 -121.078125 L 67.921875 -88.8125 L 86.78125 -121.078125 L 128.109375 -121.078125 L 88.8125 -63.828125 L 133.109375 0 L 88.8125 0 L 67.46875 -37.25 L 45.65625 0 Z M 2.5 0 "/>
                </g>
            </g>
        </g>
    </g>
    <g transform="matrix(1,0,0,1,360,507.504)">
        <g transform="matrix(1,0,0,1,-100,-100)">
            <clipPath id="_clip2">
                <rect x="0" y="0" width="200" height="200"/>
            </clipPath>
            <g clip-path="url(#_clip2)">
                <circle cx="100" cy="100" r="50" style="fill:none;stroke:rgb(4,54,74);stroke-width:20px;stroke-dasharray:164.93,56.98;">
                    <animateTransform attributeName="transform" type="rotate" repeatCount="indefinite" dur="1s" values="0 100 100;360 100 100" keyTimes="0;1"></animateTransform>
                </circle>
            </g>
        </g>
    </g>
</svg>
