<?xml version="1.0" encoding="UTF-8" standalone="no"?>
<!DOCTYPE svg PUBLIC "-//W3C//DTD SVG 1.1//EN" "http://www.w3.org/Graphics/SVG/1.1/DTD/svg11.dtd">
<svg width="100%" height="100%" viewBox="0 0 720 720" version="1.1" xmlns="http://www.w3.org/2000/svg" xmlns:xlink="http://www.w3.org/1999/xlink" xml:space="preserve" xmlns:serif="http://www.serif.com/" style="fill-rule:evenodd;clip-rule:evenodd;">
    <g transform="matrix(0.831219,0,0,0.831219,360,229.698)">
        <g transform="matrix(1,0,0,1,-409.5,-141)">
        </g>
    </g>
    <g transform="matrix(1,0,0,1,360,507.504)">
        <g transform="matrix(1,0,0,1,-100,-100)">
            <clipPath id="_clip2">
                <rect x="0" y="0" width="200" height="200"/>
            </clipPath>
            <g clip-path="url(#_clip2)">
                <circle cx="100" cy="100" r="70" style="fill:none;stroke:rgb(23,107,135);stroke-width:20px;stroke-dasharray:164.93,56.98;">
                    <animateTransform attributeName="transform" type="rotate" repeatCount="indefinite" dur="1s" values="0 100 100;360 100 100" keyTimes="0;1"></animateTransform>
                </circle>
            </g>
        </g>
    </g>
    <g transform="scale(0.8) translate(40, 150)">
    <g>
        <g transform="matrix(1,0,0,1,-130.646,-399.291)">
            <g transform="matrix(1,0,0,1,273.579,580.302)">
                <path d="M0,29.56C0,15.534 -8.898,7.088 -20.662,7.088C-32.425,7.088 -41.324,15.534 -41.324,29.56C-41.324,43.586 -32.425,52.032 -20.662,52.032C-8.898,52.032 0,43.586 0,29.56M23.829,29.56C23.829,55.048 6.183,71.336 -16.59,71.336C-27.448,71.336 -36.196,67.867 -42.078,60.779L-42.078,70.13L-64.549,70.13L-64.549,-41.776L-41.022,-41.776L-41.022,-2.413C-34.989,-9.049 -26.694,-12.216 -16.59,-12.216C6.183,-12.216 23.829,4.072 23.829,29.56" style="fill:rgb(23,107,135);fill-rule:nonzero;"/>
            </g>
            <g transform="matrix(1,0,0,1,363.458,650.431)">
                <path d="M0,-82.346L0,-60.628C-1.961,-60.78 -3.469,-60.93 -5.279,-60.93C-18.249,-60.93 -26.845,-53.842 -26.845,-38.308L-26.845,0L-50.372,0L-50.372,-81.139L-27.901,-81.139L-27.901,-70.432C-22.17,-78.273 -12.518,-82.346 0,-82.346" style="fill:rgb(23,107,135);fill-rule:nonzero;"/>
            </g>
            <g transform="matrix(1,0,0,1,435.999,609.861)">
                <path d="M0,0C0,-14.026 -8.898,-22.472 -20.662,-22.472C-32.425,-22.472 -41.474,-14.026 -41.474,0C-41.474,14.026 -32.425,22.472 -20.662,22.472C-8.898,22.472 0,14.026 0,0M-65.303,0C-65.303,-24.432 -46.452,-41.776 -20.662,-41.776C5.128,-41.776 23.829,-24.432 23.829,0C23.829,24.432 5.128,41.776 -20.662,41.776C-46.452,41.776 -65.303,24.432 -65.303,0" style="fill:rgb(23,107,135);fill-rule:nonzero;"/>
            </g>
            <g transform="matrix(1,0,0,1,510.347,570.349)">
                <path d="M0,48.26L-11.312,59.421L-11.312,80.083L-34.838,80.083L-34.838,-31.823L-11.312,-31.823L-11.312,31.52L23.075,-1.056L51.127,-1.056L17.344,33.33L54.143,80.083L25.639,80.083L0,48.26Z" style="fill:rgb(23,107,135);fill-rule:nonzero;"/>
            </g>
            <g transform="matrix(1,0,0,1,588.916,616.951)">
                <path d="M0,-14.178L39.966,-14.178C38.307,-24.433 30.616,-31.069 20.058,-31.069C9.351,-31.069 1.659,-24.584 0,-14.178M61.683,-0.453L0.301,-0.453C2.563,9.652 11.16,15.835 23.527,15.835C32.124,15.835 38.307,13.271 43.887,7.992L56.405,21.566C48.864,30.163 37.553,34.687 22.924,34.687C-5.128,34.687 -23.376,17.042 -23.376,-7.089C-23.376,-31.37 -4.827,-48.865 19.907,-48.865C43.737,-48.865 62.136,-32.879 62.136,-6.788C62.136,-4.977 61.835,-2.414 61.683,-0.453" style="fill:rgb(23,107,135);fill-rule:nonzero;"/>
            </g>
            <g transform="matrix(1,0,0,1,717.105,650.431)">
                <path d="M0,-82.346L0,-60.628C-1.961,-60.78 -3.469,-60.93 -5.278,-60.93C-18.248,-60.93 -26.845,-53.842 -26.845,-38.308L-26.845,0L-50.372,0L-50.372,-81.139L-27.9,-81.139L-27.9,-70.432C-22.169,-78.273 -12.517,-82.346 0,-82.346" style="fill:rgb(23,107,135);fill-rule:nonzero;"/>
            </g>
            <g transform="matrix(1,0,0,1,757.519,616.649)">
                <path d="M0,-45.548L20.812,-45.548L20.812,-27.449L0.604,-27.449L0.604,33.782L-22.924,33.782L-22.924,-27.449L-35.441,-27.449L-35.441,-45.548L-22.924,-45.548L-22.924,-49.167C-22.924,-67.416 -11.763,-79.33 8.446,-79.33C15.082,-79.33 22.019,-77.973 26.393,-74.956L20.21,-57.914C17.645,-59.724 14.328,-60.78 10.708,-60.78C3.77,-60.78 0,-57.01 0,-49.017L0,-45.548Z" style="fill:rgb(23,107,135);fill-rule:nonzero;"/>
            </g>
            <g transform="matrix(1,0,0,1,872.135,680.896)">
                <path d="M0,-111.604L-36.648,-25.488C-44.49,-5.882 -55.651,0 -70.28,0C-78.575,0 -87.624,-2.715 -92.902,-7.39L-84.305,-24.13C-80.687,-20.964 -75.71,-19.003 -71.034,-19.003C-64.549,-19.003 -60.929,-21.868 -57.762,-29.108L-57.461,-29.862L-92.601,-111.604L-68.32,-111.604L-45.546,-56.556L-22.622,-111.604L0,-111.604Z" style="fill:rgb(23,107,135);fill-rule:nonzero;"/>
            </g>
        </g>
        <g transform="matrix(1,0,0,1,-130.646,-399.291)">
            <path d="M130.665,594.822C130.665,546.626 130.665,498.417 130.665,450.209C130.665,450.023 130.652,449.837 130.646,449.652C131.091,441.895 132.902,434.494 136.618,427.637C144.688,412.745 157.055,403.591 173.676,400.184C176.145,399.678 178.649,399.469 181.158,399.291C181.811,399.302 182.462,399.321 183.116,399.321C421.116,399.322 659.116,399.322 897.114,399.322C921.906,399.322 943.914,417.679 948.386,442.059C949.001,445.413 949.31,448.782 949.31,452.187C949.309,510.083 949.309,567.978 949.308,625.874L949.27,625.874L949.27,639.658C949.27,645.769 944.316,650.722 938.206,650.722C932.096,650.722 927.142,645.769 927.142,639.658L927.142,625.874L927.13,625.874C927.126,567.95 927.127,510.032 927.127,452.114C927.127,435.055 913.492,421.433 896.418,421.433L183.551,421.433C166.478,421.433 152.846,435.054 152.846,452.115C152.846,508.993 152.846,565.869 152.843,622.746L152.774,622.746L152.774,639.658C152.774,645.769 147.82,650.722 141.71,650.722C135.6,650.722 130.646,645.769 130.646,639.658L130.646,594.822L130.665,594.822Z" style="fill:rgb(23,107,135);fill-rule:nonzero;"/>
        </g>
    </g>
   </g>
</svg>